<?xml version="1.0" encoding="UTF-8"?>
<svg id="Layer_2" xmlns="http://www.w3.org/2000/svg" viewBox="0 0 512 512">
  <defs>
    <style>
      .cls-1 {
        fill: #111011;
      }

      .cls-2 {
        fill: #111;
      }

      .cls-3 {
        fill: #2b2b2b;
      }

      .cls-4 {
        fill: #595959;
      }

      .cls-5 {
        fill: #f0cbad;
      }

      .cls-6 {
        fill: #5b5b5b;
      }

      .cls-7 {
        fill: #e3e3e3;
      }

      .cls-8 {
        fill: #d2d2d2;
      }

      .cls-9 {
        fill: #1c1c1c;
      }

      .cls-10 {
        fill: #f1cbad;
      }

      .cls-11 {
        fill: #868686;
      }

      .cls-12 {
        fill: #171717;
      }

      .cls-13 {
        fill: #a5a5a5;
      }

      .cls-14 {
        fill: #f1ccae;
      }

      .cls-15 {
        fill: #aaa;
      }

      .cls-16 {
        fill: #3a3a3a;
      }

      .cls-17 {
        fill: #373737;
      }

      .cls-18 {
        fill: #c6c6c6;
      }

      .cls-19 {
        fill: #303030;
      }

      .cls-20 {
        fill: #656565;
      }

      .cls-21 {
        fill: #060606;
      }

      .cls-22 {
        fill: #5a5a5b;
      }

      .cls-23 {
        fill: #fff;
      }

      .cls-24 {
        fill: #343434;
      }

      .cls-25 {
        fill: #221d1b;
      }

      .cls-26 {
        fill: #878787;
      }

      .cls-27 {
        fill: #6d5e52;
      }

      .cls-28 {
        fill: #858585;
      }

      .cls-29 {
        fill: #8b8b8b;
      }

      .cls-30 {
        fill: #fefefe;
      }

      .cls-31 {
        fill: #0c0c0c;
      }

      .cls-32 {
        fill: #acacac;
      }

      .cls-33 {
        fill: #b2b3b3;
      }

      .cls-34 {
        fill: #1f1f1f;
      }

      .cls-35 {
        fill: #6b6b6b;
      }

      .cls-36 {
        fill: #383838;
      }

      .cls-37 {
        fill: #838383;
      }

      .cls-38 {
        fill: #bfbfbf;
      }

      .cls-39 {
        fill: #8c8c8c;
      }

      .cls-40 {
        fill: #dadada;
      }

      .cls-41 {
        fill: #f2ccae;
      }

      .cls-42 {
        fill: #cacaca;
      }

      .cls-43 {
        fill: #999;
      }

      .cls-44 {
        fill: #cfcfcf;
      }

      .cls-45 {
        fill: #e8e8e8;
      }

      .cls-46 {
        fill: #b2b2b2;
      }
    </style>
  </defs>
  <g id="Layer_1-2" data-name="Layer_1">
    <g>
      <path class="cls-21" d="M251.87,0h6.96c.85.47,1.76.11,2.64.22.57,0,1.15,0,1.72,0,.58,0,1.16,0,1.75,0,.7,0,1.41,0,2.11,0,.7,0,1.4,0,2.1,0,.46,0,.92,0,1.38,0,13.46.18,26.69,2.21,39.81,5,18.22,3.87,35.77,9.74,52.72,17.49,16.35,7.47,31.68,16.64,46.15,27.26,12.77,9.38,24.46,20.01,35.24,31.58,14.08,15.12,26.15,31.76,36.19,49.83,15.48,27.87,25.44,57.58,29.83,89.17.84,6.03,1.34,12.08,1.31,18.17,0,.55,0,1.1,0,1.64,0,.32,0,.64,0,.96,0,.31,0,.63,0,.94,0,.41,0,.81,0,1.22.06.47-.17,1,.22,1.42v22.62c-.43.55-.14,1.19-.22,1.78,0,.32,0,.63,0,.95,0,.43,0,.87,0,1.3,0,.67,0,1.33,0,2,.11,12.76-2.13,25.23-4.78,37.63-3.77,17.64-9.47,34.66-16.98,51.05-8.33,18.18-18.56,35.24-30.86,51.04-7.18,9.22-14.83,18.01-23.21,26.13-17.15,16.62-36.12,30.8-57.15,42.23-13.29,7.22-27.09,13.24-41.41,18-16.54,5.51-33.48,9.34-50.83,11.29-4.32.48-8.65.62-12.98.84-.8,0-1.59,0-2.39,0-.34,0-.69,0-1.03,0-.46,0-.92,0-1.38,0-.58,0-1.16,0-1.74,0-.7,0-1.41,0-2.11,0-1.16.11-2.34-.25-3.48.22h-9.57c-1.27-.48-2.58-.1-3.87-.22-.83,0-1.66,0-2.49,0-.47,0-.93,0-1.4,0-.58,0-1.15,0-1.73,0-.34,0-.68,0-1.03,0-.68,0-1.36,0-2.04,0-13.25-.17-26.22-2.43-39.11-5.25-20.27-4.43-39.66-11.42-58.23-20.67-18.11-9.02-34.89-20.07-50.44-33.02-8.26-6.88-15.99-14.31-23.29-22.15-11.39-12.21-21.47-25.46-30.24-39.7-11.26-18.3-20.17-37.66-26.63-58.15-4.74-15.03-7.95-30.41-9.82-46.06-.57-4.74-1.1-9.49-1.12-14.28.06-2.04-.05-4.07-.21-6.11,0-.48,0-.96,0-1.44,0-.71,0-1.41,0-2.12-.11-.9.25-1.84-.22-2.71v-9.57c.47-1,.11-2.06.22-3.09,0-.59,0-1.19,0-1.78.27-1.9.21-3.81.21-5.72.33-12.65,2.3-25.09,4.9-37.44,3.28-15.58,8.04-30.7,14.18-45.39,7.62-18.2,17.18-35.31,28.78-51.27,6.36-8.74,13.26-17.02,20.61-24.96,18.14-19.58,38.97-35.7,62.18-48.78,13.86-7.82,28.34-14.3,43.44-19.33,17.38-5.8,35.17-9.78,53.42-11.72,4.62-.49,9.24-.6,13.86-.85.45,0,.9,0,1.35,0,.56,0,1.13,0,1.69,0,.45,0,.9,0,1.35,0,.45,0,.9,0,1.35,0,.56,0,1.13,0,1.69,0,.87-.11,1.79.25,2.63-.22Z"/>
      <path class="cls-46" d="M.82,272.76c-.54-.64-.26-1.44-.43-2.15-.43-.68.13-1.54-.39-2.21v-2.18c.14-.2.29-.21.43,0,.31,2.17.58,4.34.39,6.54Z"/>
      <path class="cls-33" d="M.38,241.8c.16-.71-.1-1.5.43-2.13.2,2.06-.06,4.09-.36,6.11-.16.2-.31.19-.45,0v-1.74c.52-.68-.03-1.54.38-2.23Z"/>
      <path class="cls-9" d="M247.93,511.59c1.32.1,2.7-.4,3.94.41h-3.92c-.14-.08-.19-.17-.15-.27.04-.1.08-.14.13-.14Z"/>
      <path class="cls-34" d="M261.44,512c1.08-.84,2.33-.28,3.5-.41.13.1.17.19.12.28-.05.09-.1.13-.14.13h-3.48Z"/>
      <path class="cls-6" d="M.45,247.52c0,1.04.25,2.11-.45,3.04v-3.05c.15-.21.3-.19.45,0Z"/>
      <path class="cls-44" d="M273.63,511.61c0,.13-.01.26-.01.39h-2.61c-.15-.09-.2-.17-.14-.24.05-.07.11-.11.16-.11.87-.08,1.73-.21,2.6-.04Z"/>
      <path class="cls-12" d="M261.46.42c-.88-.09-1.85.35-2.63-.42h2.61c.14.09.19.18.15.27-.04.1-.09.15-.13.15Z"/>
      <path class="cls-19" d="M0,260.13c.75.77.38,1.73.42,2.62-.15.2-.29.18-.42-.01v-2.61Z"/>
      <path class="cls-36" d="M247.93,511.59c.02.14.02.27.02.41h-2.61c-.14-.08-.19-.16-.15-.25.04-.09.08-.14.12-.14.87,0,1.74-.01,2.61-.02Z"/>
      <path class="cls-24" d="M251.87,0c-.8.74-1.76.38-2.66.37-.11-.1-.13-.19-.08-.26.05-.07.09-.11.13-.11h2.61Z"/>
      <path class="cls-40" d="M0,268.4c.59.66.36,1.46.39,2.21-.13-.01-.26-.03-.39-.04v-2.18Z"/>
      <path class="cls-36" d="M264.92,512c0-.14,0-.27.02-.41.73.02,1.46.03,2.2.05.11.09.14.18.09.26-.05.07-.09.11-.14.11h-2.18Z"/>
      <path class="cls-6" d="M0,262.74c.14.01.28.01.42.01.01.71.03,1.43.04,2.14-.15.22-.3.22-.47.02v-2.18Z"/>
      <path class="cls-42" d="M512,273.62l-.18.04-.18-.02c0-.72,0-1.45,0-2.17.11-.22.23-.23.36-.02v2.18Z"/>
      <path class="cls-8" d="M.38,241.8c-.02.76.24,1.57-.38,2.23v-2.18c.13-.02.25-.04.38-.06Z"/>
      <path class="cls-44" d="M239.25,512c0-.13-.01-.26-.01-.38.73-.16,1.45-.06,2.17.03.16.07.21.15.16.23-.05.08-.1.13-.15.13h-2.18Z"/>
      <path class="cls-39" d="M267.11.37c-.72,0-1.44-.01-2.16-.02-.17-.06-.23-.14-.19-.22.05-.09.1-.14.15-.14h2.18c.14.08.19.16.15.24-.04.09-.08.13-.13.13Z"/>
      <path class="cls-38" d="M267.11.37c-.02-.12-.03-.25-.02-.37h2.18c.14.08.19.17.15.25-.04.09-.09.13-.14.13-.72,0-1.44,0-2.16-.01Z"/>
      <path class="cls-16" d="M511.6,269.3c-.03-.63-.19-1.28.4-1.77v1.74c-.12.2-.25.2-.4.03Z"/>
      <path class="cls-42" d="M511.64,238.8c.12-.05.24-.04.36.02v1.74c-.13.21-.25.19-.36-.02-.08-.58-.15-1.16,0-1.75Z"/>
      <path class="cls-11" d="M.45,247.52c-.15,0-.3,0-.45,0,0-.58,0-1.16,0-1.74.15,0,.3,0,.45,0,.18.58.06,1.16,0,1.74Z"/>
      <path class="cls-17" d="M261.46.42c-.02-.14-.02-.28-.02-.42h1.74c.13.07.18.15.15.24-.04.09-.07.14-.11.14-.59.01-1.17.03-1.76.04Z"/>
      <path class="cls-20" d="M249.26,0c0,.12-.02.25-.05.37-.57,0-1.14,0-1.72-.01-.12-.09-.16-.17-.11-.25.05-.07.09-.11.14-.11h1.74Z"/>
      <path class="cls-18" d="M244.9.37c-.58.09-1.16.16-1.74.02-.14-.09-.18-.18-.13-.26.05-.08.1-.13.14-.13h1.74c.15.09.19.17.14.25-.05.08-.1.12-.15.12Z"/>
      <path class="cls-37" d="M242.28,511.62c.58,0,1.15.01,1.73.02.17.07.23.14.18.23-.05.09-.1.13-.15.13h-1.74c-.14-.08-.19-.16-.15-.25.04-.09.09-.13.13-.13Z"/>
      <path class="cls-6" d="M267.09,512c0-.12.02-.24.04-.36.58,0,1.15,0,1.73,0,.12.09.16.18.11.26-.05.08-.09.11-.14.11h-1.74Z"/>
      <path class="cls-22" d="M263.21.38c-.02-.12-.03-.25-.04-.38h1.74c0,.12.02.24.04.36-.58,0-1.16.01-1.74.02Z"/>
      <path class="cls-7" d="M269.28.39c0-.13-.01-.26-.01-.39h1.31c0,.13,0,.26,0,.39-.43,0-.87,0-1.3,0Z"/>
      <path class="cls-28" d="M0,264.92c.16,0,.31-.01.47-.02-.01.44-.02.88-.03,1.33,0,0-.22,0-.22,0H0C0,265.79,0,265.35,0,264.92Z"/>
      <path class="cls-29" d="M247.52,0c0,.12-.02.24-.03.36-.43,0-.86,0-1.29,0-.13-.09-.17-.17-.12-.25.05-.08.09-.11.14-.11h1.31Z"/>
      <path class="cls-15" d="M246.21,0c0,.12,0,.24-.02.36-.43,0-.87,0-1.3,0,0-.12.01-.25.01-.37h1.31Z"/>
      <path class="cls-45" d="M243.17,0c0,.13,0,.26,0,.39-.43,0-.87,0-1.3.01,0-.13,0-.27,0-.4h1.31Z"/>
      <path class="cls-6" d="M244.04,512c0-.12-.02-.24-.03-.36.44-.01.87-.02,1.31-.03.02.13.03.26.03.39h-1.31Z"/>
      <path class="cls-4" d="M511.62,243.55c0-.43,0-.85,0-1.28.14-.18.27-.17.38.03v1.31c-.16.2-.28.2-.38-.05Z"/>
      <path class="cls-3" d="M511.62,243.55c.13.02.25.04.38.05v1.31c-.5-.35-.45-.85-.38-1.35Z"/>
      <path class="cls-43" d="M512,271.44l-.18.03h-.18c0-.44,0-.87,0-1.31.1-.22.22-.25.36-.03v1.31Z"/>
      <path class="cls-37" d="M268.83,512c0-.12,0-.25.03-.37.43,0,.86,0,1.29,0,.13.09.17.17.13.26-.05.08-.09.12-.14.12h-1.31Z"/>
      <path class="cls-15" d="M511.64,240.54c.12-.02.24-.02.36.02v.87c-.13.2-.26.2-.37-.02,0-.29,0-.58.01-.87Z"/>
      <path class="cls-26" d="M511.63,241.41c.12,0,.24.01.37.02v.87c-.13,0-.26,0-.38-.03,0-.29.01-.58.02-.86Z"/>
      <path class="cls-32" d="M242.28,511.62c.02.13.03.25.02.38h-.87c0-.12,0-.24-.02-.36.29,0,.58-.01.87-.02Z"/>
      <path class="cls-35" d="M512,270.14c-.12.02-.24.03-.36.03-.01-.29-.03-.58-.04-.87.13-.03.26-.04.4-.03v.87Z"/>
      <path class="cls-13" d="M270.14,512c0-.13,0-.25.02-.37.29,0,.58.01.87.02-.01.12-.02.23-.02.35h-.87Z"/>
      <path class="cls-41" d="M170.15,373.4h175.33c-.03.76-.66.79-1.05,1-28.28,15.59-56.57,31.16-84.83,46.78-1.1.61-1.89.54-2.94-.04-28.38-15.56-56.77-31.1-85.15-46.65-.47-.26-1.1-.37-1.36-1.09Z"/>
      <path class="cls-41" d="M434.7,335.99c.02,1.01-.34,1.86-1.16,2.45-.53.38-1.11.68-1.68,1-57.23,31.96-114.46,63.91-171.67,95.9-1.36.76-2.34.81-3.72.04-58.44-32.46-116.91-64.87-175.37-97.3-.63-.35-1.3-.66-1.87-1.1-1.24-.96-1.53-2.58-.79-3.9.73-1.28,2.32-1.85,3.75-1.26.8.33,1.55.78,2.31,1.2,57.2,31.71,114.4,63.42,171.6,95.13.32.18.66.32.94.54.87.67,1.63.51,2.55-.02,5.92-3.36,11.88-6.66,17.82-9.98,50.4-28.14,100.8-56.28,151.21-84.42.63-.35,1.24-.77,1.92-1.01,2.11-.77,4.12.58,4.15,2.72Z"/>
      <path class="cls-23" d="M218.94,289.79c4.73,0,8.99,0,13.26,0,2.06,0,1.87.14,1.87-1.87,0-15.73,0-31.46,0-47.19,0-2.85.33-5.64,1.25-8.34,2.26-6.66,7.59-10.69,14.62-11.03,2.7-.13,5.38.04,7.9,1.08,5.86,2.42,8.79,7.05,9.67,13.14.3,2.08.42,4.18.42,6.29-.02,25.08,0,50.16-.02,75.24,0,2.94.36,2.56-2.5,2.58-2.1.02-4.2.01-6.31,0-1.65-.01-1.68-.02-1.68-1.64-.01-5.22,0-10.44,0-15.66,0-.51-.03-1.02,0-1.52.06-.86-.34-1.13-1.16-1.12-3.55.03-7.1.03-10.65,0-.89,0-1.1.4-1.09,1.19.03,1.88,0,3.77,0,5.65,0,3.91-.03,7.83.02,11.74.01,1.01-.24,1.41-1.33,1.38-2.61-.07-5.22-.07-7.83,0-1.09.03-1.34-.4-1.33-1.4.04-5.15.02-10.29.02-15.44,0-.51,0-1.01,0-1.52-.03-1.56-.03-1.57-1.52-1.59-1.88-.02-3.77-.1-5.65.03-1.32.09-2.11-.33-2.78-1.49-1.57-2.75-3.29-5.42-5.18-8.51Z"/>
      <path class="cls-23" d="M112.65,289.79c4.65,0,8.85,0,13.04,0,2.42,0,2.11.07,2.11-2.09,0-15.51,0-31.01,0-46.52,0-2.69.18-5.35.94-7.95,2.12-7.27,7.72-11.63,15.3-11.89,4.1-.15,7.92.64,11.23,3.23,3.98,3.12,5.63,7.42,6.09,12.28.15,1.58.16,3.18.16,4.78,0,25.22,0,50.43,0,75.65,0,2.82.23,2.38-2.45,2.41-1.88.02-3.77.01-5.65,0-2.69-.01-2.37.27-2.38-2.49-.01-5,0-10,0-15,0-.51-.02-1.01,0-1.52.02-.61-.21-.93-.88-.93-3.7.02-7.39.01-11.09,0-.55,0-.78.28-.78.8,0,.51,0,1.01,0,1.52,0,5.22,0,10.43,0,15.65,0,2.14.07,1.96-2.03,1.96-2.1,0-4.2,0-6.3,0-2.26-.01-2.14.33-2.14-2.05,0-5.07,0-10.14,0-15.22,0-.43-.04-.87,0-1.3.11-1.02-.27-1.42-1.34-1.39-2.03.07-4.06-.05-6.08.05-1.15.06-1.85-.28-2.44-1.31-1.63-2.8-3.37-5.54-5.3-8.68Z"/>
      <path class="cls-23" d="M321.05,289.73c1.15.29,2.12.5,3.08.79,4.8,1.42,6.96,4.08,7.38,9.01.54,6.29.17,12.6.29,18.9.02.93-.29,1.28-1.25,1.27-2.61-.05-5.22-.08-7.83.01-1.22.04-1.45-.45-1.44-1.52.04-4.2.03-8.41,0-12.61,0-1.01-.07-2.03-.23-3.03-.3-1.86-.98-2.62-2.83-2.71-3.18-.14-6.37-.07-9.56-.11-.65,0-.91.3-.91.92,0,.94,0,1.88,0,2.83,0,4.64,0,9.28,0,13.91,0,2.76.03,2.25-2.38,2.27-2.17.02-4.35.02-6.52,0-1.53-.01-1.57-.03-1.57-1.56-.02-5.07,0-10.15,0-15.22,0-.65-.04-1.31,0-1.96.07-.97-.38-1.23-1.29-1.21-2.17.05-4.35.01-6.52.02-.66,0-1.23,0-1.66-.71-1.78-2.98-3.62-5.91-5.42-8.82.39-.71.96-.41,1.41-.42,3.84-.03,7.68,0,11.52-.02,2.17,0,1.95.22,1.95-2,0-21.02,0-42.03,0-63.05,0-1.64,0-3.29,0-5.25,15.46,4.54,26.77,13.43,32,28.62,5.23,15.19,2.61,29.24-8.25,41.62Z"/>
      <path class="cls-23" d="M388.14,265.81c0,12.39,0,24.79,0,37.18,0,2.69-.17,5.35-1.01,7.94-2.05,6.37-7.26,10.51-13.92,11.05-2.1.17-4.21.18-6.28-.23-6.59-1.31-11.17-6.12-12.37-12.96-.29-1.64-.46-3.29-.46-4.97.01-26.02.01-52.04,0-78.06,0-.36.02-.73,0-1.09-.03-.62.22-.95.87-.95,2.9,0,5.8,0,8.7,0,.66,0,.9.32.89.94-.01.58,0,1.16,0,1.74,0,25.44,0,50.88,0,76.32,0,1.45.02,2.89.37,4.32.75,3.06,2.7,4.64,5.9,4.76,3.31.13,5.45-1.37,6.39-4.41.47-1.49.4-3.01.4-4.53,0-25.44,0-50.88.01-76.32,0-3.25-.47-2.79,2.92-2.82,2.1-.02,4.2.03,6.31-.02.93-.02,1.35.29,1.27,1.24-.04.5,0,1.01,0,1.52,0,13.12,0,26.24,0,39.36Z"/>
      <path class="cls-41" d="M293.14,167.45c-2.02,2.39-3.51,5.12-5.09,7.8-.29.5-.55,1.02-.85,1.52-.34.59-.78,1.11-1.54.97-.86-.16-1.46-.75-1.53-1.62-.08-1-.1-2.04.06-3.03.17-1.11,0-1.89-.95-2.64-1.63-1.28-1.8-2.32-.98-4.18.23-.53.51-1.04.82-1.53.67-1.06.71-2.02-.3-2.9-1.22-1.06-1.03-2.3-.37-3.55.79-1.49,1.91-2.72,3.15-3.86.35-.32.88-.51.94-1.35-1.08.08-2.12.12-3.16.23-13.94,1.45-27.9,1.96-41.91,1.32-7.03-.32-14.04-.75-21.03-1.54-3.67-.42-7.32-.97-10.98-1.47-1.59-.21-3.18-.38-4.76-.04-1.64.35-1.9,1.15-.87,2.44.59.74,1.37,1.29,2.13,1.85,4.94,3.62,9.4,7.74,13.15,12.59,3.04,3.94,5.46,8.19,6.46,13.14.39,1.94.44,3.88.28,5.84-.03.34.05.77-.4.9-.4.11-.68-.17-.95-.41-.83-.74-1.34-1.69-1.78-2.7-.52-1.2-.81-2.48-1.1-3.75-.66-2.86-2.17-5.18-4.44-7.03-3.15-2.57-6.5-4.85-9.94-7.02-4.53-2.86-9.09-5.69-13.59-8.6-2.74-1.77-5.34-3.75-7.6-6.13-1.71-1.8-3.15-3.79-3.86-6.22-.59-2.03.21-3.09,2.31-3,.64.03,1.31.13,1.91.34,5.09,1.81,10.46,2.29,15.73,3.15,9.23,1.5,18.51,2.59,27.83,3.36,9.83.81,19.68,1.21,29.55.86,7.61-.27,15.21-.57,22.8-1.21,13.22-1.12,26.34-2.92,39.31-5.78,2.19-.48,4.39-.97,6.64-1.09.72-.04,1.46-.06,2.17.02,1.73.2,2.29,1.05,1.77,2.69-.44,1.39-1.16,2.65-2.01,3.84-1.48,2.08-3.25,3.89-5.16,5.57-5.26,4.61-11.13,8.33-17.11,11.9-2.67,1.59-5.5,2.92-7.95,4.88-1.42,1.14-2.74,2.37-3.94,3.73-1.38,1.57-2.22,3.36-2.36,5.48-.23,3.39-2.36,5.84-4.3,8.36-.51.67-1.18.47-1.44-.38-.35-1.13-.29-2.29-.16-3.45.73-6.33,2.29-12.38,5.95-17.72.27-1.44,1.36-2.34,2.25-3.48-1.11.87-1.48,2.34-2.8,2.88Z"/>
      <path class="cls-41" d="M403.23,135.27c-1.76.86-3.56,1.6-5.49,1.99-.57.12-1.14.24-1.72.14-.74-.12-1.15-.62-1.24-1.32-.09-.72.23-1.31.91-1.56.61-.22,1.27-.29,1.9-.43,3.13-.7,5.77-2.28,8.05-4.5,1.17-1.15,1.19-1.4.32-2.79-.83-1.33-2.06-2.23-3.41-2.96-.89-.48-1.84-.85-2.74-1.32-1.89-.99-1.95-2.92-.12-4.08.37-.23.77-.4,1.15-.61,4.88-2.72,9.59-5.7,13.87-9.31,1.39-1.17,2.66-2.45,3.82-3.85,1.75-2.11,2.04-4.39,1.05-6.91-1.07-2.71-2.85-4.87-5.15-6.59-4.84-3.64-10.36-4.76-16.24-3.94-1.92.26-3.24-.08-4.66-1.41-3.11-2.93-6.71-5.06-11.08-5.53-2.44-.26-4.73.24-6.93,1.58,1.06,1.5,2.07,2.89,3.04,4.31.43.63.97.81,1.68.65.71-.16,1.41-.33,2.12-.46.8-.14,1.47.12,1.74.92.29.86.05,1.61-.86,1.94-1.43.53-2.91.93-4.46.7-1.13-.17-1.98-.76-2.61-1.75-.82-1.28-1.75-2.48-2.66-3.71-.26-.35-.6-.76-1.06-.36-1.2,1.04-2.71.89-4.12,1.12-5.3.87-10.5,2.13-15.43,4.33-2.33,1.04-4.53,2.28-6.42,4.01-4.75,4.37-4.36,10.96.89,14.75.76.55,1.61.98,2.44,1.42,5.19,2.75,10.2,5.79,14.94,9.28,1.63,1.2,2.06,2.49,1.25,3.61-.84,1.17-2.07,1.16-3.8-.1-16.27-11.81-34.54-18.68-54.22-22.09-9.67-1.68-19.4-2.51-29.21-2.04-1.22.06-1.74-.3-1.77-1.49,0-.35-.17-.7-.27-1.05-1.17-4.35-4.51-6.63-8.94-6.11q-1.67.19-2.17-1.38c-1.31-4.12-4.58-6.14-8.88-5.5-1.59.24-3.12.64-4.51,1.46-1.89,1.12-3.21,2.68-3.81,4.81-.21.74-.45,1.48-.66,2.16-.65.1-.91-.32-1.24-.57-2.02-1.56-5.37-1.48-7.17.21-.61.57-.85,1.33-1.02,2.12-.75,3.52-.51,7.07-.19,10.6.11,1.22.39,2.43.55,3.65.18,1.37-.46,2.43-1.59,2.71-1.25.31-2.37-.39-2.66-1.89-.95-4.93-1.42-9.9-.57-14.9.84-4.94,2.93-7.34,9.26-7.95,1.59-.15,2.54-.58,3.54-1.83,3.5-4.41,10.78-6.26,16.03-4.25,2.38.91,4.3,2.46,5.57,4.64.62,1.06,1.34,1.5,2.52,1.66,4.52.63,7.78,3.01,9.5,7.29.36.89.81,1.18,1.75,1.16,3.91-.06,7.82.03,11.73.32,15.06,1.1,29.63,4.33,43.69,9.83.53.21,1.07.41,1.59.62.43-.53.14-1.01.05-1.48-.9-4.44.23-8.32,3.25-11.66,2.17-2.41,4.86-4.11,7.75-5.5,5.66-2.73,11.69-4.22,17.88-5.14,1.12-.17,2.02-.53,2.92-1.24,5.22-4.16,10.99-4.85,17.17-2.47,2.8,1.08,5.31,2.66,7.57,4.61.86.74,1.64,1.08,2.89.96,6.72-.62,13,.71,18.46,4.87,3.67,2.8,6.36,6.29,7.3,10.96.52,2.56.06,4.89-1.27,7.08-1.41,2.32-3.29,4.22-5.32,5.99-3.73,3.25-7.86,5.92-12.13,8.48.14.77.85.93,1.31,1.3,4.23,3.37,5.25,7.66,2.96,12.57-.81,1.72-1.89,3.25-3.14,4.67-2.85,3.24-6.21,5.86-9.9,8.07-1.46.87-3.06,1.31-4.72,1.51-6.68.79-13.31.03-19.93-.83-.78-.1-1.38-.47-1.73-1.16-.99-1.96-2.68-3.23-4.46-4.35-2.27-1.42-4.63-2.7-6.94-4.04-.88-.51-1.79-.96-2.62-1.54-2.15-1.52-2.53-3.69-1.02-5.86.79-1.13,1.74-2.13,3.09-2.62.52-.38,1.11-.18,1.67-.2,1.77,1.1,1.98,2.41.58,3.72-.47.44-1.13.68-1.44,1.38.25.64.93.8,1.45,1.1,2.2,1.27,4.44,2.45,6.61,3.76,2.18,1.31,4.22,2.82,5.81,4.86.43.55.9.89,1.61.96,5.48.5,10.95,1.25,16.47.57,1.02-.12,2.03-.27,2.92-.77,3.68-2.09,7.04-4.56,9.61-7.98-.17-.31-.35-.12-.53,0Z"/>
      <path class="cls-23" d="M199.46,234.06c-2.22,0-4.17,0-6.12,0-3.7,0-7.39-.05-11.09.03-1.17.02-1.48-.36-1.45-1.47.07-2.54.04-5.07,0-7.61-.01-.88.2-1.32,1.2-1.31,10.07.03,20.15.03,30.22.04.13,0,.27.09.66.23-7.09,28.36-14.18,56.75-21.33,85.35h6.54c3.91,0,7.83-.01,11.74,0,1.52,0,1.55.03,1.56,1.54.02,2.46-.05,4.93.03,7.39.04,1.16-.38,1.46-1.49,1.45-7.54-.04-15.08-.02-22.61-.02h-9.14c7.1-28.6,14.16-57.01,21.26-85.62Z"/>
      <path class="cls-23" d="M88.36,264.61c0,12.1,0,24.21,0,36.31,0,1.81.07,3.62.33,5.42.23,1.59,1.06,2.44,2.62,2.73,1.08.2,2.16.24,3.24.24,3.41,0,6.81.05,10.22-.02,1.16-.03,1.49.35,1.46,1.47-.07,2.53-.03,5.07-.01,7.61,0,.81-.06,1.38-1.14,1.34-4.85-.18-9.71.3-14.55-.34-7.05-.93-11.03-4.77-12.16-11.85-.3-1.86-.48-3.73-.48-5.63.02-25.37,0-50.74,0-76.1,0-.43,0-.87,0-1.3.01-.54.32-.77.83-.77,2.9,0,5.8,0,8.7,0,.63,0,.94.25.92.9-.01.51,0,1.01,0,1.52,0,12.83,0,25.66,0,38.49Z"/>
      <path class="cls-23" d="M431.89,223.99c-.13.68-.74,1.01-1.17,1.46-8.14,8.55-12.21,18.68-11.84,30.53.18,5.82,1.95,11.24,4.29,16.49,1.8,4.03,3.57,8.07,4.93,12.27,3.81,11.73,1.98,22.85-3.39,33.64-.49.98-1.07,1.34-2.16,1.32-3.76-.07-7.53-.03-11.33-.03-.25-.93.52-1.33.91-1.85,3.25-4.43,5.68-9.21,6.86-14.63,1.06-4.87.76-9.63-.69-14.37-1.21-3.95-2.73-7.78-4.46-11.53-2.55-5.56-4.58-11.29-5.17-17.41-1.22-12.7,1.38-24.48,8.79-35.03.48-.68.93-1.19,1.9-1.18,4.06.06,8.12.03,12.18.05.1,0,.21.15.34.25Z"/>
      <path class="cls-41" d="M283.12,112.95c9.56.28,18.89.89,28.18,1.93,9.97,1.11,19.7,3.3,29.18,6.56,3.02,1.04,5.93,2.34,8.46,4.35,4.09,3.25,4.99,7.52,2.57,12.18-.64,1.23-1.43,2.35-2.3,3.42-1.38,1.69-2.92,3.23-4.55,4.66-.6.53-1.14,1.07-1.49,1.83-1.58,3.47-3.9,6.43-6.52,9.17-5.83,6.09-12.75,10.69-20.08,14.73-.57.31-1.15.62-1.72.92-.53.28-1.02.61-.92,1.31.11.72.67.83,1.28.93,3.58.55,7.16,1.1,10.73,1.68,11.86,1.91,23.75,3.72,35.45,6.52,2.7.65,5.26,1.57,7.44,3.38,4.43,3.67,5.26,8.73,2.12,13.54-2.23,3.41-5.38,5.85-8.78,7.98-1.2.76-2.43.5-3.09-.47-.64-.95-.41-2.23.66-3.07,1.02-.81,2.14-1.49,3.17-2.29,1.83-1.44,3.55-3,4.7-5.07,1.45-2.6,1.1-4.8-1.08-6.85-1.58-1.48-3.49-2.29-5.56-2.81-4.85-1.23-9.75-2.16-14.67-3.05-13.83-2.49-27.71-4.66-41.62-6.61-.43-.06-.85-.16-1.28-.27-.95-.23-1.51-.82-1.62-1.8-.11-.96.24-1.72,1.11-2.17.64-.34,1.31-.61,1.97-.91,8.35-3.75,16.35-8.11,23.48-13.92,2.2-1.79,4.25-3.73,6.14-5.84,1.46-1.62,2.96-3.27,3.83-5.25,1.1-2.54,2.81-4.46,4.86-6.23,1.75-1.52,3.27-3.3,4.38-5.37,1.58-2.95,1.15-4.96-1.51-7.02-1.91-1.49-4.09-2.47-6.35-3.27-8.29-2.93-16.79-5-25.5-6.14-14.39-1.89-28.87-2.49-43.37-2.68-.65,0-1.31.01-1.96-.04-1.64-.13-2.67-1.09-2.56-2.36.1-1.22,1.05-1.99,2.66-1.97,4.2.05,8.41.16,12.61.26.58.01,1.16.07,1.52.1Z"/>
      <path class="cls-41" d="M228.32,112.89c5.58-.29,11.16-.19,16.74-.32.07,0,.14,0,.22,0,1.92.02,2.92.75,2.92,2.14,0,1.36-1,2.18-2.91,2.21-6.81.11-13.62.24-20.43.47-9.85.34-19.69.78-29.45,2.27-6.95,1.07-13.81,2.53-20.36,5.19-3.03,1.23-5.94,2.69-8.42,4.87-3.41,3.01-3.6,5.17-.73,8.73,1.74,2.16,3.83,3.96,6.12,5.51.93.63,1.63,1.39,2.22,2.32,2.22,3.49,4.66,6.81,7.25,10.04,2.47,3.08,5.37,5.67,8.68,7.81,4.51,2.92,9.21,5.48,14.02,7.84,1.29.63,2.84,1.11,2.49,3.05-.33,1.82-1.92,1.77-3.24,1.95-13.28,1.77-26.47,4.06-39.53,7.07-4.94,1.14-9.85,2.39-14.57,4.26-1.28.51-2.55,1.04-3.67,1.86-1.72,1.25-2.12,2.81-1.26,4.77.65,1.49,1.72,2.68,2.89,3.77,2.23,2.1,4.75,3.79,7.41,5.29,1.85,1.05,2.39,2.16,1.7,3.41-.68,1.23-2,1.39-3.81.38-3.18-1.76-6.17-3.8-8.75-6.38-1.44-1.44-2.7-3.03-3.5-4.93-1.6-3.83-.5-7.57,2.94-9.9,1.63-1.11,3.42-1.89,5.25-2.58,6.72-2.55,13.72-4.11,20.73-5.6,6.94-1.48,13.93-2.66,20.93-3.85.36-.06.72-.07,1.07-.16.93-.23,1.52-.83,1.72-1.76.19-.87-.19-1.56-.85-2.09-.28-.22-.59-.42-.91-.59-7.02-3.84-12.49-9.34-16.97-15.9-.25-.36-.52-.7-.75-1.07-1.9-3.11-4.18-5.83-7.22-7.96-2.08-1.45-3.74-3.42-5.08-5.61-2.56-4.15-2.27-7.69.92-11.33,2.24-2.55,5.05-4.32,8.06-5.81,5.56-2.75,11.48-4.39,17.52-5.63,8.6-1.77,17.31-2.7,26.08-3.11,4.85-.23,9.7-.41,14.55-.62Z"/>
      <path class="cls-23" d="M101.35,180.46c1.99.13,2.9,1.18,3.1,2.98,2.07-.57,4.03-1.02,6.04-1.22,2.08-.2,2.52.14,2.54,2.15.04,3.26.04,6.52-.02,9.78-.04,2.12-.59,2.49-2.67,2.2-1.93-.26-3.82-.7-5.86-1.21-.35,1.39-.69,2.76-2.46,2.89-.59.04-.39.63-.31,1.05.26,1.35.52,2.7.76,4.05.09.5.19,1,.21,1.5.06,1.54-.3,1.98-1.82,2.07-1.16.07-2.32.02-3.48.02-2.32,0-4.64.03-6.95-.02-1.9-.04-2.31-.54-1.99-2.44.34-1.99.46-4.03,1.38-6.1-1.52-.29-2.92-.61-2.97-2.5-.01-.53-.67-.39-1.09-.31-1.78.33-3.55.68-5.33,1-1.77.31-2.33-.03-2.37-1.78-.08-3.47-.09-6.95-.03-10.43.03-1.74.59-2.16,2.36-1.92,1.72.23,3.42.61,5.12.95.8.16,1.37.19,1.5-.9.17-1.46,1.49-1.55,2.74-1.79-.7-2.12-1.02-4.17-1.3-6.23-.25-1.84.18-2.36,2.08-2.38,3.33-.03,6.66-.03,9.99,0,1.9.02,2.35.5,2.12,2.37-.25,2-.5,4.02-1.29,6.22Z"/>
      <path class="cls-23" d="M406.06,180.41c-.74-2.12-1.04-4.19-1.28-6.27-.2-1.73.21-2.25,1.96-2.27,3.4-.04,6.81-.04,10.21,0,1.76.02,2.18.51,2,2.28-.22,2.07-.55,4.13-1.24,6.29,1.8.18,2.9,1.04,2.99,2.99,2.06-.5,4-1,6-1.19,2.23-.22,2.61.08,2.62,2.25.02,3.26.03,6.52-.02,9.78-.03,1.97-.59,2.38-2.54,2.11-1.94-.28-3.85-.65-5.87-1.22-.48,1.31-.78,2.8-2.63,2.91-.47.03-.28.73-.21,1.14.28,1.57.63,3.12.86,4.7.34,2.38-.06,2.81-2.5,2.82-3.11.01-6.23.02-9.34-.01-2.23-.02-2.54-.44-2.25-2.57.27-2.01.59-4.01,1.29-6.09-1.48-.12-2.78-.43-2.89-2.26-.05-.74-.73-.5-1.2-.41-1.78.32-3.55.69-5.33,1-1.7.3-2.2-.02-2.24-1.68-.08-3.55-.09-7.1-.02-10.65.03-1.67.51-2.05,2.2-1.83,1.72.23,3.42.6,5.12.95.88.18,1.49.21,1.63-.99.16-1.36,1.47-1.4,2.71-1.75Z"/>
      <path class="cls-41" d="M236.07,218.56c-1.17,1.22-1.62,2.87-2.85,3.29-1.15.39-2.47-.59-3.69-1-24.04-8.17-48.03-16.46-72.16-24.36-.62-.2-1.25-.36-1.86-.6-1.31-.52-1.85-1.56-1.47-2.73.34-1.05,1.27-1.58,2.62-1.34.92.16,1.83.45,2.72.75,17.14,5.76,34.28,11.52,51.41,17.31,7.81,2.64,15.61,5.33,23.41,8,.54.19,1.08.4,1.87.7Z"/>
      <path class="cls-41" d="M270.24,221.01c3.88-.99,7.8-2.01,11.72-3,15.37-3.88,30.74-7.74,46.11-11.61.42-.11.84-.22,1.27-.28,1.57-.23,2.58.34,2.86,1.61.25,1.1-.42,2.13-1.81,2.54-1.73.51-3.5.91-5.25,1.36-17.05,4.3-34.1,8.59-51.16,12.89-1.83.46-1.83.45-2.73-1.24-.34-.64-.68-1.27-1.01-1.91-.03-.05,0-.14,0-.34Z"/>
      <path class="cls-41" d="M360.14,127.7c-.56.07-1.12.14-1.67.2.64-.49.49-.75-.15-1.19-5.17-3.63-10.65-6.71-16.42-9.28-10.24-4.56-20.95-7.53-31.95-9.51-8.35-1.5-16.77-2.39-25.25-2.6-.22,0-.43,0-.65-.02-.96-.03-1.47-.59-1.58-1.47-.1-.83.63-1.52,1.69-1.57,1.23-.05,2.46-.03,3.69.04,14.81.81,29.34,3.16,43.47,7.76,9.61,3.13,18.74,7.27,27.12,12.99.48.33.97.64,1.43.99,1.48,1.13,1.49,1.47.24,3.08-.09.11.02.38.03.57Z"/>
      <path class="cls-30" d="M263.64,348.86c0-3.04-.01-6.09,0-9.13,0-1.5.03-1.51,1.59-1.54.65-.02,1.3,0,1.96,0,2.39-.03,2.04.12,2.05,1.96,0,1.59,0,3.19,0,4.78,0,.58.14.95.84.94.68-.02.86-.36.85-.96,0-1.74.05-3.48-.02-5.22-.05-1.08.19-1.66,1.42-1.52,1.28.14,2.88-.5,3.79.28.96.82.34,2.46.35,3.73.04,5.22.03,10.44.02,15.65,0,1.83-.02,1.87-1.71,1.84-1.21-.02-2.74.54-3.55-.26-.81-.8-.24-2.34-.29-3.55-.05-1.38-.02-2.75,0-4.13,0-.64-.06-1.14-.91-1.13-.93.02-.78.66-.79,1.21-.01,2.17-.05,4.35.01,6.52.03,1.04-.31,1.44-1.36,1.36-1.01-.07-2.03-.07-3.04,0-.98.06-1.23-.37-1.22-1.28.04-3.19.01-6.38.01-9.57Z"/>
      <path class="cls-30" d="M310.95,347.09c0-2.46-.01-4.92,0-7.38.01-1.49.04-1.56,1.58-1.51,1.27.04,2.87-.6,3.73.36.75.83.22,2.36.24,3.57.03,3.33.01,6.66,0,9.99,0,.65-.03,1.3-.03,1.95,0,2.42-.69,4.51-3.12,5.45-2.81,1.09-5.54.85-7.99-1.04-.76-.59-1.24-1.42-1.38-2.39-.13-.93-.25-1.87-.26-2.8-.04-4.49-.04-8.97-.04-13.46,0-1.59.03-1.64,1.48-1.63,1.29.01,2.9-.54,3.78.26.9.83.3,2.46.32,3.73.04,4.05,0,8.1.04,12.16,0,.72-.32,1.95.73,1.96,1.21.01.87-1.27.89-2.05.05-2.39.02-4.78.02-7.16Z"/>
      <path class="cls-23" d="M191.75,349c0,1.74.05,3.47-.01,5.21-.08,2.41-.97,4.42-3.37,5.34-2.58.98-5.13.86-7.44-.78-1.1-.78-1.74-1.94-1.86-3.31-.39-4.33-.44-8.67.01-13,.26-2.48,1.87-4,4.32-4.51,1.14-.24,2.29-.27,3.45-.07,2.81.49,4.37,2.02,4.79,4.82.31,2.09.1,4.19.11,6.29Z"/>
      <path class="cls-23" d="M296.57,349.12c0,1.74.05,3.47-.01,5.21-.09,2.43-1.06,4.41-3.47,5.27-2.66.95-5.28.82-7.58-1.05-.93-.75-1.48-1.79-1.59-2.99-.41-4.4-.39-8.81,0-13.21.06-.66.27-1.27.61-1.84,1.27-2.19,4.01-3.17,7.28-2.58,2.7.48,4.21,2.01,4.65,4.7.05.29.11.57.11.86,0,1.88,0,3.76,0,5.64Z"/>
      <path class="cls-14" d="M285,120.52c9.41.39,18.82.77,28.16,2.15,5.45.81,10.85,1.83,15.98,3.93,2.5,1.02,4.86,2.27,6.66,4.36,2.01,2.34,2.35,5.15.95,7.65-.21.38-.44.76-.75,1.06-.59.58-1.31.64-1.97.15-.58-.42-.78-1.03-.5-1.73.08-.2.16-.41.29-.58,1.42-2.02.41-3.91-1.02-5.19-1.65-1.47-3.61-2.39-5.65-3.16-4.77-1.8-9.74-2.75-14.77-3.45-12.66-1.77-25.4-2.09-38.16-2.11-.72,0-1.45.02-2.17-.06-.75-.08-1.15-.61-1.21-1.32-.08-.82.34-1.41,1.13-1.62.41-.11.86-.08,1.29-.08,3.91,0,7.83,0,11.74,0Z"/>
      <path class="cls-14" d="M230.66,123.61c-9.27.36-18.53.78-27.72,2.11-5.02.73-9.99,1.66-14.76,3.46-1.9.72-3.74,1.57-5.31,2.89-2.09,1.76-2.4,3.04-1.27,5.49.41.88.55,1.67-.32,2.31-.75.55-1.67.24-2.38-.75-1.48-2.08-1.47-5.08.06-7.36,1.16-1.73,2.8-2.91,4.6-3.89,3.46-1.89,7.22-2.98,11.04-3.83,6.59-1.46,13.27-2.21,20-2.69,8.96-.64,17.94-.9,26.93-.83.58,0,1.17-.03,1.73.06.81.13,1.29.66,1.29,1.5,0,.83-.44,1.38-1.29,1.48-.57.07-1.16.05-1.74.05-3.62,0-7.24,0-10.87,0Z"/>
      <path class="cls-41" d="M250.07,128.73c0-5.14-.01-10.27,0-15.41,0-3.28,1.17-4.45,4.43-4.48,2.53-.02,5.06,0,7.6,0,.14,0,.29,0,.43,0,1.74.07,2.7.71,2.75,1.84.05,1.12-.84,1.79-2.59,2-1.87.22-3.73.51-5.6.69-.99.09-1.4.53-1.41,1.5-.02,1.3-.2,2.6-.17,3.9.16,8.41-.37,16.77-1.51,25.1-.1.71-.2,1.44-.4,2.13-.26.89-.97,1.22-1.85,1.16-.81-.05-1.38-.52-1.55-1.29-.14-.63-.12-1.29-.12-1.94,0-5.06,0-10.13,0-15.19Z"/>
      <path class="cls-41" d="M255.93,208.01c-10.86-.01-21.3-2-31.2-6.56-.66-.3-1.32-.61-1.92-1-.7-.46-.85-1.18-.51-1.91.35-.75,1-1.03,1.8-.76.48.16.93.39,1.39.6,11.91,5.58,24.45,7.33,37.47,6.22,9.09-.77,17.81-3.06,26.25-6.48.27-.11.54-.22.82-.29,1.06-.28,1.86.04,2.13.89.29.93-.15,1.59-.97,1.91-2.29.9-4.58,1.81-6.9,2.6-9.19,3.12-18.63,4.81-28.35,4.78Z"/>
      <path class="cls-30" d="M164.31,348.87c0,1.59,0,3.18,0,4.78,0,.51.03,1.01.05,1.52.03.6.11,1.21.89,1.24.78.03.94-.54.96-1.16.03-1.01.08-2.03.06-3.04-.02-.83.29-1.18,1.14-1.15,1.16.04,2.32.04,3.47,0,.77-.03,1.02.33.98,1.04-.04.72-.02,1.45-.06,2.17-.18,3.35-1.78,5.15-5.08,5.75-1.61.29-3.18.09-4.69-.49-1.59-.6-2.67-1.71-2.96-3.45-.12-.71-.28-1.43-.28-2.14-.03-3.47-.08-6.95,0-10.42.07-3.32,1.81-5.15,5.1-5.68,1.32-.21,2.62-.13,3.87.22,2.11.58,3.62,1.87,3.91,4.15.19,1.5.14,3.03.19,4.55.02.53-.26.79-.8.77-.07,0-.14,0-.22,0-1.37-.02-3.01.42-4.05-.19-1.23-.72-.27-2.51-.51-3.81-.04-.21,0-.43-.04-.65-.08-.61.08-1.41-.89-1.44-.95-.03-.97.69-1,1.35-.04.87-.05,1.74-.05,2.6,0,1.16,0,2.32,0,3.47Z"/>
      <path class="cls-23" d="M328.45,350.99c-.84-.92-1.99-1.41-2.94-2.19-2.3-1.88-3.01-6.53-1.34-8.95.42-.61.97-1.1,1.65-1.38,2.62-1.08,5.24-1.06,7.77.24,1.58.82,2.48,3.43,2.02,5.35-.11.46-.41.55-.78.56-.65.02-1.31.03-1.96,0-.71-.03-1.52.26-2.11-.17-.58-.42-.17-1.22-.3-1.84-.12-.56-.13-1.23-.96-1.17-.76.06-.88.69-.94,1.26-.11,1.15.16,2.16,1.22,2.82.92.57,1.81,1.21,2.75,1.75,2.7,1.54,3.64,3.94,3.58,6.93-.08,3.82-1.64,5.55-5.45,5.9-3.36.31-5.67-.95-7.03-3.85-.19-.24-.2-.52-.2-.81.08-4.51-.64-3.67,3.69-3.74,1.91-.03,1.97.09,2.52,2.89q.24-1.38-1.19-3.61Z"/>
      <path class="cls-30" d="M342.94,348.88c0-3.04-.02-6.09,0-9.13.01-1.52.04-1.55,1.58-1.56,2.17-.02,4.35.02,6.52-.02.91-.02,1.36.28,1.26,1.25-.1.92.35,2.02-.22,2.74-.55.68-1.63.27-2.47.27-.86,0-1.19.36-1.11,1.18.01.14,0,.29,0,.43-.06,2.43-.06,2.49,2.32,2.53.99.01,1.28.38,1.18,1.27-.03.29,0,.58,0,.87,0,2.03.13,1.92-1.83,1.92-1.63,0-1.63.04-1.66,1.67,0,.22,0,.43,0,.65.02,2.8-.26,2.41,2.42,2.44,1.72.02,1.72.03,1.74,1.82,0,.36-.03.73,0,1.09.1.99-.21,1.45-1.31,1.42-2.39-.07-4.78-.05-7.17,0-.95.02-1.27-.33-1.26-1.26.03-3.19.01-6.38.01-9.57Z"/>
      <path class="cls-30" d="M247.22,349c0-3.11.04-6.23-.02-9.34-.02-1.15.36-1.52,1.49-1.49,2.17.07,4.35.05,6.52,0,.98-.02,1.55.22,1.39,1.33-.02.14,0,.29,0,.43.04,2.43.04,2.49-2.33,2.49-1.13,0-1.62.34-1.46,1.48.02.14,0,.29,0,.43.03,2.26-.32,2.38,2.18,2.24,1.08-.06,1.45.33,1.3,1.35-.02.14,0,.29,0,.43.02,2.16.02,2.22-2.13,2.23-1.04,0-1.5.31-1.35,1.36.01.07,0,.15,0,.22.09.99-.4,2.19.25,2.94.61.69,1.78.28,2.69.26.99-.02,1.29.41,1.19,1.31-.02.14,0,.29,0,.43-.03,3.03.25,2.56-2.51,2.58-1.96.02-3.91-.04-5.87.02-1.05.04-1.39-.33-1.38-1.37.05-3.11.02-6.23.02-9.34Z"/>
      <path class="cls-30" d="M230.88,348.91c0-3.11.03-6.22-.02-9.34-.01-.99.23-1.44,1.32-1.41,2.24.07,4.49.05,6.73,0,.95-.02,1.33.35,1.22,1.27,0,.07,0,.14,0,.22.08,2.64.09,2.68-2.47,2.76-.93.03-1.34.32-1.26,1.26.03.29,0,.58,0,.87-.02,2.08-.05,2.1,1.97,2.06,1.48-.03,1.49.04,1.51,1.57,0,.43-.03.87,0,1.3.06.81-.24,1.12-1.11,1.16-2.38.1-2.38.15-2.38,2.47,0,.29.03.58,0,.87-.15,1.17.4,1.44,1.5,1.44,2.72,0,2.66.05,2.65,2.84,0,1.15-.38,1.49-1.5,1.46-2.31-.07-4.63-.06-6.95,0-.95.02-1.26-.32-1.25-1.25.04-3.18.01-6.37.01-9.55Z"/>
      <path class="cls-10" d="M256.88,160.78c-15.09-.08-27.71-1.1-40.27-2.94-.64-.09-1.28-.25-1.92-.34-.89-.12-1.55-.49-1.49-1.5.05-.83.81-1.23,2.02-1.06,2.01.28,4.01.6,6.01.88,11.71,1.63,23.48,2.4,35.3,2.36,5.29-.01,10.57-.3,15.84-.76.5-.04,1.01-.07,1.52-.04.56.04.95.35,1.05.92.11.64-.1,1.18-.73,1.4-.47.17-.98.25-1.48.3-6.06.53-12.14.72-15.83.77Z"/>
      <path class="cls-30" d="M207.99,346.59c0,.77,0,1.27,0,1.76,0,2.15,0,2.22-2.14,2.23-1.08,0-1.36.4-1.33,1.4.06,1.95.02,3.91.02,5.87,0,2.05.03,1.84-1.93,1.83-.8,0-1.6-.05-2.39.01-.97.07-1.26-.35-1.25-1.27.04-2.03.01-4.06.01-6.09,0-4.2-.01-8.41,0-12.61,0-1.52.04-1.54,1.59-1.55,2.1-.02,4.2-.02,6.3,0,1.49.02,1.49.04,1.53,1.59,0,.07,0,.14,0,.22.03,2.37.03,2.42-2.37,2.42-1.07,0-1.67.24-1.51,1.44.05.36,0,.72,0,1.09q.03,1.6,1.71,1.64c.5.01,1,0,1.74,0Z"/>
      <path class="cls-30" d="M214.91,348.89c0-3.11.03-6.22-.02-9.34-.02-1.03.28-1.42,1.35-1.39,2.31.06,4.63.05,6.95,0,.94-.02,1.21.36,1.24,1.28.09,2.81.13,2.86-2.74,2.97-.99.04-1.27.43-1.19,1.31.03.29,0,.58,0,.87.01,1.94-.25,2.12,1.99,1.98,1.08-.07,1.68.21,1.48,1.42-.05.28,0,.58,0,.87,0,1.52.28,1.83-1.8,1.75-1.69-.07-1.68-.03-1.67,1.65.01,2.1-.02,4.2.01,6.3.01.83-.29,1.18-1.13,1.14-1.08-.04-2.17-.06-3.26,0-.97.06-1.25-.34-1.24-1.26.04-3.18.01-6.37.01-9.55Z"/>
      <path class="cls-10" d="M377.44,111.8c-.26-.06-.68-.16-1.1-.25-7.79-1.81-14.91-5.03-21.14-10.11-.39-.32-.8-.63-1.2-.93-1.61-1.18-1.63-1.2-3.09.35-.65.68-1.37.86-2.12.37-.77-.51-.83-1.24-.44-2.09,1.09-2.37,3.67-3.34,5.99-2.1.95.51,1.82,1.18,2.66,1.87,5.77,4.7,12.32,7.78,19.53,9.49.56.13,1.13.25,1.68.45.86.31,1.29.95,1.05,1.87-.21.8-.83,1.14-1.82,1.1Z"/>
      <path class="cls-10" d="M383.01,119.65c-5.72,0-10.71-.73-15.6-2.17-1.82-.54-2.36-1.12-2.09-2.2.26-1.06,1.11-1.31,2.88-.82,9.41,2.61,18.81,2.98,28.2-.07.21-.07.42-.13.63-.18.92-.21,1.61.11,1.87,1,.27.88-.08,1.59-.98,1.89-1.23.42-2.46.85-3.72,1.16-3.88.96-7.82,1.45-11.19,1.37Z"/>
      <path class="cls-10" d="M256.28,101.88c-2.34.11-5.03-.46-7.69-1.18-1.05-.28-2.09-.59-3.14-.86-1.49-.38-1.65-.32-2.38,1.08-.33.64-.56,1.33-.81,2.01-.34.92-.91,1.51-1.94,1.28-.93-.2-1.32-1.08-1-2.29.33-1.26.87-2.45,1.64-3.53,1.18-1.68,2.73-2.29,4.73-1.73.97.28,1.97.5,2.93.82,4.73,1.6,9.53,1.57,14.37.62,1.14-.22,2.27-.45,3.41-.63,1.55-.24,2.27.09,2.46,1.07.17.88-.4,1.75-1.79,1.99-3.43.59-6.83,1.27-10.77,1.35Z"/>
      <path class="cls-5" d="M376,136.5c-4.92-.3-9.11-2.11-12.83-5.07-1.21-.97-1.17-1.88,0-2.86.61-.51,1.28-.95,1.94-1.39.74-.49,1.52-.57,2.17.12.57.6.59,1.4.01,1.96-.73.72-.41,1.03.27,1.44,2.66,1.57,5.51,2.53,8.61,2.69,1.77.09,2.38.53,2.34,1.56-.04,1.08-.92,1.6-2.52,1.55Z"/>
      <path class="cls-5" d="M253.71,92.83c2.51.1,4.71-.29,6.92-.65,1.76-.29,2.44-.03,2.67.97.25,1.13-.37,1.79-2.17,2.08-1.93.31-3.87.54-5.82.75-.71.08-1.45.04-2.17-.05-3.31-.42-4.11-2.43-2.06-5.13.71-.93,1.55-1.73,2.49-2.42,1.01-.75,1.99-.74,2.48.04.55.87.31,1.64-.44,2.31-.64.56-1.39,1.02-1.9,2.11Z"/>
      <path class="cls-31" d="M328.45,350.99c1.99.68,2.48,2.21,2.29,4.1-.07.68-.26,1.33-1.11,1.31-.78-.01-.83-.65-.9-1.23-.02-.14-.01-.29-.03-.43-.13-.9.46-2.33-.38-2.59-1.31-.42-2.84-.2-4.27-.15-.56.02-.5.61-.5,1.02.01,1.08.05,2.15.08,3.23-.8-1.25-.36-2.63-.38-3.96-.01-.63.51-.8,1.06-.81.79-.01,1.58,0,2.37-.02.63-.02,1.32.15,1.78-.48Z"/>
      <path class="cls-25" d="M293.14,167.45c.68-1.45,1.81-2.56,2.79-3.79.22-.27.49-.58.89-.28.5.37.23.73-.06,1.07-1.02,1.2-2.04,2.39-3.06,3.59-.19-.2-.37-.4-.56-.59Z"/>
      <path class="cls-27" d="M403.23,135.27c.13-.29.37-.51.66-.36.27.14.12.31-.13.37-.18,0-.35,0-.53,0Z"/>
      <path class="cls-21" d="M297.47,392.46c-.05.61-.32,1.13-.82,1.47-.48.32-.99.59-1.5.87-11.8,6.35-23.61,12.68-35.37,19.08-1.37.74-2.39.75-3.76,0-11.77-6.41-23.58-12.73-35.37-19.08-.45-.24-.91-.45-1.33-.74-.93-.65-1.21-1.57-.79-2.44.46-.94,1.45-1.26,2.61-.79.53.22,1.03.53,1.54.8,11.16,6.01,22.32,12.01,33.45,18.07,1.29.7,2.27.69,3.55-.01,11.13-6.06,22.3-12.06,33.45-18.07.64-.34,1.27-.74,1.95-.94,1.26-.36,2.43.56,2.39,1.78Z"/>
      <path class="cls-21" d="M244.52,263.73c0-7.46,0-14.92,0-22.39,0-1.67.07-3.34.48-4.96,1-3.93,4.68-5.8,8.47-4.32,1.59.62,2.58,1.82,3.16,3.39.58,1.58.78,3.24.78,4.91.01,15.94.01,31.88,0,47.82,0,1.57-.03,1.6-1.5,1.61-3.33.02-6.67-.04-10,.03-1.21.03-1.41-.46-1.41-1.53.04-8.19.02-16.37.02-24.56Z"/>
      <path class="cls-21" d="M151.04,263.49c0,8.18,0,16.36,0,24.55,0,1.73-.02,1.74-1.76,1.75-3.26,0-6.52-.03-9.78.02-.93.01-1.35-.27-1.23-1.22.04-.28,0-.58,0-.87,0-15.71,0-31.43,0-47.14,0-1.6.09-3.19.57-4.72.89-2.79,2.94-4.25,5.87-4.22,2.87.02,4.81,1.42,5.73,4.12.6,1.75.58,3.56.59,5.37,0,7.46,0,14.92,0,22.37Z"/>
      <path class="cls-21" d="M307.91,289.69v-53.29c9.42,7.27,13.59,16.67,13.36,28.08-.21,10.51-4.59,18.87-13.36,25.21Z"/>
      <path class="cls-21" d="M102.73,189.4c0,3.82-3.4,7.14-7.28,7.12-3.81-.03-7.15-3.47-7.1-7.33.05-3.85,3.45-7.18,7.3-7.14,3.77.03,7.08,3.47,7.08,7.35Z"/>
      <path class="cls-21" d="M419.07,189.41c0,3.78-3.47,7.14-7.32,7.11-3.82-.04-7.15-3.49-7.09-7.34.06-3.85,3.47-7.18,7.31-7.13,3.75.05,7.11,3.52,7.11,7.36Z"/>
      <path class="cls-1" d="M186.21,349.03c0,1.66,0,3.32,0,4.98,0,.5-.02,1.01-.07,1.51-.05.46-.26.85-.77.88-.66.04-.83-.45-.89-.99-.03-.29-.04-.58-.04-.86,0-3.75,0-7.5,0-11.25,0-.14,0-.29.02-.43.07-.63.02-1.45.95-1.4.91.06.8.89.8,1.51.03,2.02.01,4.04.01,6.06h0Z"/>
      <path class="cls-2" d="M291.05,348.7c0,1.73,0,3.46,0,5.19,0,.43,0,.87-.04,1.3-.04.59-.14,1.25-.92,1.2-.76-.05-.76-.73-.81-1.3-.02-.22-.02-.43-.02-.65,0-3.68-.02-7.35.01-11.03,0-.73-.26-1.89.84-1.9,1.29,0,.88,1.25.91,2.01.07,1.73.02,3.46.02,5.19Z"/>
    </g>
  </g>
</svg>